<?xml version="1.0" encoding="UTF-8"?>
<svg id="Layer_2" data-name="Layer 2" xmlns="http://www.w3.org/2000/svg" viewBox="0 0 1537.83 602.61">
  <defs>
    <style>
      .cls-1 {
        fill: #0d1c73;
      }
    </style>
  </defs>
  <g id="surfacce">
    <path class="cls-1" d="M69.17,0s21.35,17.74,31.78,49.57,79.83,32.87,104.35,76.17,11.48,92.35,109.04,150.78c97.57,58.43,135.13,62.09,139.3,84.52,2.95,15.88,30.73,26.01,46.72,30.57,6.69,1.91,13.01,4.88,18.83,8.69,12.08,7.92,38.74,20.6,81.58,16.57,61.04-5.74,84.52,37.04,148.7,21.91,64.17-15.13,77.22-51.65,107.48-41.74,30.26,9.91,51.65-67.83,98.09-60.52,36.28,5.71,76.06-7.38,91.73-13.37,9.81-3.75,20.05-6.32,30.51-7.3,13.25-1.25,29.32-.47,40.55,7.63,22.43,16.17,62.61-29.22,81.39-14.09,18.78,15.13,35.48-29.74,62.09-26.61,18.29,2.15,41.77-4.08,54.65-8.19,6.79-2.16,13.87-3.29,21-3.29h131.7c38.2,0,69.17,30.97,69.17,69.17v192.96c0,38.2-30.97,69.17-69.17,69.17H69.17c-38.2,0-69.17-30.97-69.17-69.17V69.17C0,30.97,30.97,0,69.17,0h0"/>
  </g>
</svg>