<?xml version="1.0" encoding="UTF-8"?>
<svg id="Layer_2" data-name="Layer 2" xmlns="http://www.w3.org/2000/svg" viewBox="0 0 1487.87 470.48">
  <defs>
    <style>
      .cls-1 {
        fill: #010b40;
      }
    </style>
  </defs>
  <g id="surfacce">
    <path class="cls-1" d="M39.96,11.48s49.65,6.26,70,45.91c20.35,39.65,56.87,45.39,56.87,45.39,0,0,65.22,10.43,78.26,58.96,9.8,36.46,41.41,44.94,56.51,46.9,6.39.83,12.49,3.16,17.72,6.91,14.56,10.44,41.63,33.13,50.98,63.06,13.04,41.74,82.96,1.57,129.39,43.3,42.67,38.35,68.6-15.37,115.84-1.66,7.17,2.08,13.46,6.41,18.28,12.12,29.89,35.39,62.9,18.47,112.67,49.02,28.7,18.26,101.22-2.61,117.91-22.43,10.04-11.92,21.03-5.35,35.57-2.08,15.86,3.57,32.14-3.51,40.92-17.19,16.47-25.67,49.33-44.92,59.03-50.22,1.69-.92,3.44-1.71,5.24-2.38l76.3-27.96c3.58-1.31,6.95-3.14,9.99-5.44,10.99-8.29,37.31-29.33,40.6-42.91,4.17-17.22,71.48-24,71.48-24,0,0,33.82-2.16,53.17-42.04,15.03-30.97,52.37-35.69,68.31-36.25,6.02-.21,11.9-1.84,17.19-4.73,15.35-8.39,43.87-28.13,49.16-60.98,3.33-20.69,23.68-33.14,44.83-40.57,25.25-8.86,51.69,9.87,51.69,36.63v392.82c0,21.44-17.38,38.82-38.82,38.82H38.82c-21.44,0-38.82-17.38-38.82-38.82V50.28C0,28.4,18.08,10.84,39.96,11.48h0"/>
  </g>
</svg>