<?xml version="1.0" encoding="UTF-8"?>
<svg id="Layer_2" data-name="Layer 2" xmlns="http://www.w3.org/2000/svg" viewBox="0 0 57.99 31.68">
  <defs>
    <style>
      .cls-1 {
        fill: #231f20;
      }
    </style>
  </defs>
  <g id="bird">
    <path class="cls-1" d="M27.1,31.21c2.33,1.2,5.36-.02,5.83-2.6.04-.22.06-.44.07-.67.05-3.32.51-7.55,2.45-8.24C38.71,18.54,59.95,1.73,57.85.1c-1.65-1.28-20.31,10.11-28.22,15.06-2.24,1.4-4.98,1.69-7.47.8L1.93,8.71c-1.31-.47-2.46,1.01-1.66,2.16,2.44,3.54,7.01,9.09,13.98,13.58.9.58,1.84,1.09,2.79,1.58l10.07,5.18Z"/>
  </g>
</svg>