<?xml version="1.0" encoding="UTF-8"?>
<svg id="Layer_2" data-name="Layer 2" xmlns="http://www.w3.org/2000/svg" viewBox="0 0 1501.04 1029.68">
  <defs>
    <style>
      .cls-1 {
        fill: #4177a6;
      }
    </style>
  </defs>
  <g id="surfacce">
    <path class="cls-1" d="M1452.96,38.12s-28.64,21.13-42.96,35c-8.06,7.8-16.86,14.81-26.47,20.59-10.52,6.33-21.55,16.27-23.85,35.53-.29,2.45-.84,4.86-1.66,7.18-4.34,12.25-4.39,21.85-4.05,26.39.17,2.35.11,4.71-.21,7.04-.96,7.05-3.11,21.77-5.9,34.38-2.48,11.16-10.58,20.24-21.35,24.08-25.54,9.11-40.2,23.7-47.63,33.42-6.19,8.1-12.61,16.01-19.44,23.57-16.32,18.04-42.08,50.73-42.08,77.21,2.49,55.08-14.71,81.76-17.89,86.2-.32.45-.63.91-.92,1.37-1.94,3.05-11.17,15.88-39.75,35.72-20.23,14.04-34.85,34.82-40.95,58.68-.03.11-.05.21-.08.31-.3,1.18-.54,2.37-.7,3.58-.67,5.14-5.11,25.8-33.14,30.93s-77.72-3.51-89.7-5.75c-1.93-.36-3.88-.55-5.85-.57-15.22-.13-80.41,1.14-99.87,31.91-.43.67-.86,1.35-1.32,2-.36.5-.71,1-1.07,1.49-18.26,25.3-42.78,45.38-70.97,58.75-18.36,8.71-39.01,19.71-46.8,28.31-3.51,3.87-7.95,6.82-12.81,8.74-40.08,15.78-82.87-13.74-82.87-13.74,0,0-40.3-30.13-91.17-37.57-45.72-6.68-117.36-37.71-146.17-56.13-4.8-3.07-8.73-7.32-11.45-12.33-22.37-41.32-46.42-51.32-52.32-53.23-1.22-.4-2.42-.84-3.59-1.38-2.56-1.17-5.45-3.16-8.64-5.83-17.25-14.41-27.54-35.59-28.43-58.05-.97-24.33-6.84-40.63-10.64-48.78-1.68-3.61-4.03-6.85-6.88-9.63-11.13-10.84-45.13-37.02-57.36-50.13-1.06-1.14-2.22-2.16-3.34-3.24-9.29-8.98-10.02-61.55-10.05-75.74,0-2.73-.34-5.44-1.02-8.08-2.35-9.12-9.17-30.07-25.11-45.17-2.17-2.06-4.64-3.78-7.29-5.16-47.79-24.98-60.77-66.84-63.43-77.81-.33-1.37-.57-2.75-.72-4.16-.86-8.06-6.23-47.43-30.47-67.84-2.46-2.07-5.26-3.71-8.22-4.95-28.79-12.05-47.1-29.2-51.87-33.99-.7-.7-1.35-1.43-1.98-2.19-3.24-3.93-16.57-19.72-27.83-27.26-5.81-3.9-11.38-.81-15.76,3.77C3.08,11.63,0,19.83,0,28.25v968c0,18.46,14.97,33.43,33.43,33.43h1434.18c18.46,0,33.43-14.97,33.43-33.43V69.54c0-20.7-18.63-36.43-39.04-32.96l-9.05,1.54"/>
  </g>
</svg>