<?xml version="1.0" encoding="UTF-8"?>
<svg id="Layer_2" data-name="Layer 2" xmlns="http://www.w3.org/2000/svg" viewBox="0 0 1595.35 895.43">
  <defs>
    <style>
      .cls-1 {
        fill: #0d2673;
      }
    </style>
  </defs>
  <g id="surfacce">
    <path class="cls-1" d="M80.65,0s51.22,10.17,66.09,50.09c10.29,27.62,34.44,35.75,48.35,38.14,9.94,1.71,18.92,7.17,24.62,15.5,7.33,10.72,13.72,27.57,8.42,51.23-10.17,45.39,79.83,73.57,73.57,144-6.26,70.43,68.09,38.35,67.3,129.91-.29,34.34,15.92,60.2,36.3,79.12,34.53,32.04,83.08,44.28,128.94,33.53,19.87-4.66,39.75-10.19,46.87-15.02,3.22-2.18,6.82-3.75,10.57-4.76,48.71-13.09,78.82,20.37,85.18,28.34.61.76,1.18,1.56,1.73,2.37,3.18,4.7,22.91,31.17,62.15,29.03,43.04-2.35,94.17,43.57,153.65-27.13,41.62-49.47,75.32-33.03,91.8-18.7,10.15,8.83,24.15,11.72,36.91,7.45,12.21-4.08,28.44-11.75,48.03-26.06,17.41-12.72,32.11-21.62,43.68-27.78,18.7-9.95,36.19-22,52.4-35.63,8.7-7.32,18.28-13.42,25.48-12.77,13.65,1.24,40.43-.47,50.93-1.23,2.75-.2,5.5-.09,8.23.31,9.14,1.32,31.9,3.44,38.93-6.9,8.87-13.04,23.48-36.52,31.83-40.7,19.3-6.26,16.17-100.7,40.17-108.52s21.39-55.3,56.35-74.61c26.21-14.47,41.86-64.13,48.05-88.09,4.03-15.61,11.35-30.24,21.73-42.57,8.55-10.16,19.56-19.24,31.97-20.13,25.59-1.83,63.5,105.87,72.5,132.59,1.3,3.87,1.97,7.93,1.97,12.02v654.7c0,20.82-16.88,37.69-37.69,37.69H37.69c-20.82,0-37.69-16.88-37.69-37.69V37.69C0,16.88,16.88,0,37.69,0h42.96"/>
  </g>
</svg>