<svg width="362" height="329" viewBox="0 0 362 329" fill="none" xmlns="http://www.w3.org/2000/svg">
<path d="M12.6715 146.469L10.9579 145.078L18.1954 136.161L19.909 137.552L17.1026 141.01L27.3843 149.355L25.7596 151.357L15.4779 143.011L12.6715 146.469ZM33.2007 142.375L21.6569 131.358L23.3425 129.592L27.5672 133.624L27.6076 133.582C27.5035 133.068 27.5277 132.524 27.68 131.95C27.8414 131.366 28.1243 130.862 28.5288 130.438C29.275 129.656 30.1496 129.249 31.1527 129.216C32.1463 129.175 33.1942 129.68 34.2963 130.732L39.5383 135.734L37.8393 137.515L32.8234 132.728C31.58 131.541 30.5537 131.372 29.7447 132.219C29.2502 132.737 29.0581 133.382 29.1682 134.153C29.2783 134.924 29.6301 135.593 30.2235 136.159L34.8862 140.609L33.2007 142.375ZM39.1848 127.981C37.9805 126.63 37.3924 125.227 37.4206 123.771C37.4499 122.298 38.0283 121.058 39.1557 120.053C40.2638 119.065 41.537 118.654 42.9754 118.82C44.4138 118.985 45.7092 119.714 46.8615 121.007C47.0868 121.26 47.2932 121.521 47.4806 121.79L41.6488 126.988C42.2207 127.63 42.9041 128.015 43.6991 128.143C44.4951 128.254 45.2284 128.01 45.899 127.412C46.3656 126.996 46.6742 126.521 46.8248 125.985C46.9765 125.431 46.9844 124.892 46.8484 124.368L48.8617 123.515C49.1441 124.38 49.1654 125.294 48.9256 126.258C48.6859 127.222 48.1092 128.111 47.1955 128.925C46.0195 129.974 44.6933 130.423 43.2171 130.274C41.7506 130.116 40.4065 129.352 39.1848 127.981ZM40.5213 125.665L44.4869 122.13C43.9151 121.488 43.2598 121.096 42.521 120.952C41.7736 120.798 41.0937 120.994 40.4814 121.54C39.8691 122.086 39.5862 122.757 39.6327 123.553C39.6803 124.33 39.9765 125.034 40.5213 125.665ZM58.7308 115.817L59.6015 113.953C60.8964 114.449 62.0575 114.342 63.0847 113.629C63.5875 113.281 63.9167 112.91 64.072 112.517C64.2306 112.106 64.1949 111.734 63.9649 111.403C63.7794 111.135 63.4931 110.985 63.1061 110.952C62.7297 110.912 62.3744 110.937 62.0401 111.026C61.6984 111.105 61.2007 111.244 60.547 111.444C60.4284 111.478 60.344 111.505 60.2938 111.524C59.8196 111.663 59.4079 111.766 59.0588 111.834C58.7129 111.883 58.3251 111.907 57.8952 111.904C57.4579 111.89 57.0568 111.78 56.6918 111.574C56.3194 111.357 55.9885 111.039 55.6992 110.622C55.1353 109.809 55.025 108.919 55.3685 107.952C55.712 106.985 56.392 106.149 57.4085 105.444C58.1682 104.917 59.0261 104.623 59.9821 104.562C60.9307 104.491 61.7861 104.65 62.5481 105.041L61.7676 106.794C60.5353 106.365 59.4697 106.463 58.5709 107.086C58.0787 107.427 57.7694 107.792 57.6428 108.181C57.5196 108.552 57.5693 108.897 57.7919 109.218C57.9774 109.486 58.2567 109.649 58.6297 109.707C59.0061 109.747 59.3507 109.73 59.6636 109.656C59.9765 109.581 60.4096 109.463 60.9629 109.301C61.1028 109.252 61.207 109.219 61.2753 109.203C63.6028 108.493 65.1932 108.752 66.0465 109.983C66.5733 110.743 66.7012 111.613 66.4302 112.593C66.1625 113.555 65.4455 114.44 64.2792 115.249C63.3804 115.872 62.4406 116.231 61.4599 116.325C60.4898 116.411 59.5802 116.242 58.7308 115.817ZM68.4136 105.123C67.4982 103.561 67.1973 102.07 67.511 100.648C67.8292 99.2089 68.6399 98.1073 69.9428 97.3433C71.2234 96.5925 72.5525 96.4396 73.9303 96.8846C75.3082 97.3295 76.435 98.299 77.3109 99.7929C77.4822 100.085 77.6333 100.381 77.7642 100.682L71.0247 104.633C71.4593 105.375 72.0538 105.886 72.808 106.169C73.5668 106.433 74.3337 106.338 75.1088 105.884C75.6479 105.568 76.044 105.162 76.2969 104.667C76.5544 104.153 76.6681 103.626 76.6378 103.086L78.7794 102.645C78.8864 103.548 78.7276 104.449 78.3032 105.347C77.8787 106.245 77.1385 107.003 76.0827 107.622C74.7236 108.419 73.3349 108.599 71.9168 108.163C70.5099 107.72 69.3422 106.706 68.4136 105.123ZM70.1792 103.114L74.7621 100.427C74.3274 99.6857 73.762 99.1719 73.0659 98.8857C72.3633 98.5883 71.6581 98.647 70.9505 99.0619C70.2428 99.4768 69.8336 100.079 69.7229 100.868C69.6168 101.64 69.7689 102.389 70.1792 103.114ZM84.88 98.6947C85.0614 99.0698 85.361 99.3155 85.7788 99.4316C86.2026 99.5303 86.6607 99.4606 87.153 99.2225C87.8563 98.8823 88.3407 98.3588 88.6062 97.6518C88.8835 96.9391 88.8378 96.2018 88.4693 95.4399L88.0186 94.508C87.5417 94.8978 86.9507 95.3355 86.2455 95.8213C84.8703 96.7757 84.4151 97.7336 84.88 98.6947ZM82.723 99.9767C81.7988 98.0661 82.653 96.2138 85.2856 94.4197C86.2434 93.7684 86.9021 93.2762 87.2617 92.9432L86.998 92.3981C86.7599 91.9058 86.397 91.6041 85.9093 91.4928C85.4216 91.3816 84.8847 91.4677 84.2986 91.7512C83.185 92.2898 82.445 93.2119 82.0784 94.5174L80.1632 94.0118C80.3902 93.1354 80.7849 92.3515 81.3472 91.66C81.9156 90.9512 82.6042 90.4012 83.413 90.01C84.9251 89.2786 86.182 89.1262 87.1839 89.5528C88.1801 89.9678 88.9957 90.8316 89.6307 92.1445L92.6753 98.439L90.5127 99.485L89.9003 98.2191C89.8991 98.7549 89.7113 99.3085 89.3369 99.8802C88.9686 100.434 88.4328 100.882 87.7295 101.222C86.6159 101.76 85.6094 101.907 84.71 101.663C83.8105 101.418 83.1482 100.856 82.723 99.9767ZM105.122 93.1473L99.9853 78.0396L102.297 77.2537L104.214 82.8937C104.355 82.3781 104.61 81.8928 104.978 81.4376C105.354 80.966 105.844 80.6275 106.448 80.4221C107.755 79.9778 109.005 80.1165 110.199 80.8382C111.389 81.5475 112.284 82.7837 112.884 84.5465C113.156 85.3478 113.311 86.1066 113.348 86.8229C113.385 87.5391 113.329 88.1633 113.18 88.6953C113.027 89.2151 112.797 89.692 112.491 90.1262C112.193 90.5439 111.861 90.8835 111.496 91.1451C111.131 91.4067 110.739 91.6087 110.32 91.7512C109.691 91.965 109.062 91.9935 108.431 91.8366C107.808 91.6633 107.308 91.3863 106.931 91.0056L107.396 92.374L105.122 93.1473ZM105.598 87.0236C105.983 88.1578 106.511 88.9822 107.181 89.4971C107.86 89.9954 108.563 90.1209 109.29 89.8736C110.005 89.6305 110.484 89.117 110.726 88.3332C110.968 87.5494 110.886 86.5596 110.48 85.3638C110.098 84.242 109.575 83.4298 108.909 82.9274C108.251 82.4084 107.546 82.2767 106.794 82.5324C106.054 82.7838 105.578 83.324 105.365 84.153C105.147 84.9695 105.225 85.9264 105.598 87.0236ZM117.499 83.0165C117.059 81.2611 117.188 79.7452 117.888 78.4686C118.597 77.1762 119.684 76.3461 121.149 75.9782C122.589 75.6166 123.907 75.8426 125.105 76.6561C126.303 77.4696 127.113 78.7161 127.534 80.3958C127.617 80.7241 127.679 81.0509 127.72 81.3761L120.143 83.279C120.352 84.1125 120.779 84.7705 121.424 85.253C122.078 85.7197 122.841 85.8436 123.712 85.6248C124.319 85.4725 124.813 85.1941 125.194 84.7895C125.585 84.369 125.842 83.8951 125.965 83.3675L128.144 83.5452C127.993 84.4423 127.589 85.2622 126.929 86.005C126.27 86.7479 125.347 87.2684 124.16 87.5665C122.632 87.9502 121.248 87.7338 120.009 86.9172C118.783 86.0974 117.947 84.7972 117.499 83.0165ZM119.757 81.5836L124.91 80.2896C124.701 79.4561 124.302 78.8044 123.714 78.3345C123.123 77.8519 122.43 77.7106 121.634 77.9104C120.839 78.1102 120.277 78.5734 119.949 79.3001C119.631 80.011 119.567 80.7721 119.757 81.5836ZM134.778 78.8153C134.965 79.9458 135.329 80.7898 135.869 81.3472C136.423 81.9025 137.066 82.1197 137.798 81.9988C138.518 81.88 139.045 81.4763 139.38 80.7875C139.715 80.0988 139.786 79.1699 139.593 78.0008C139.404 76.8574 139.039 76.007 138.499 75.4496C137.958 74.8922 137.334 74.6718 136.628 74.7884C135.883 74.9114 135.339 75.3376 134.998 76.0671C134.669 76.7944 134.596 77.7104 134.778 78.8153ZM132.296 79.2449C132.009 77.5105 132.211 76.052 132.9 74.8693C133.589 73.6866 134.608 72.984 135.957 72.7613C136.638 72.6489 137.238 72.728 137.758 72.9985C138.288 73.2541 138.684 73.5715 138.944 73.9508L138.731 72.6597L141.159 72.2589L142.74 81.8363C143.086 83.9304 142.93 85.5463 142.273 86.6841C141.631 87.8326 140.463 88.5468 138.767 88.8267C136.904 89.1342 135.34 88.6533 134.075 87.3841L135.509 85.9992C136.398 86.7498 137.389 87.035 138.481 86.8548C139.187 86.7381 139.727 86.3719 140.101 85.756C140.474 85.14 140.608 84.3921 140.503 83.5121C140.443 82.994 140.386 82.568 140.331 82.2339C140.155 82.6853 139.846 83.0926 139.405 83.4558C138.961 83.8062 138.463 84.027 137.91 84.1182C136.51 84.3493 135.295 84.022 134.264 83.1364C133.232 82.2378 132.576 80.9407 132.296 79.2449ZM147.433 69.6444L147.164 66.9429L149.807 66.6793L150.076 69.3808L147.433 69.6444ZM148.835 82.5181L147.716 71.3042L150.146 71.0619L151.264 82.2758L148.835 82.5181ZM157.169 81.775L156.783 70.5121L159.184 70.4297L159.233 71.8547L159.252 71.854C159.433 71.4309 159.778 71.0217 160.285 70.6265C160.805 70.2178 161.482 69.9992 162.315 69.9706C163.434 69.9322 164.337 70.2465 165.024 70.9134C165.712 71.5804 166.082 72.6816 166.134 74.2172L166.383 81.459L163.904 81.544L163.667 74.634C163.607 72.9033 162.992 72.058 161.821 72.0981C161.105 72.1227 160.516 72.4295 160.055 73.0186C159.606 73.6073 159.396 74.3245 159.425 75.1704L159.648 81.69L157.169 81.775ZM171.174 78.9954L172.994 78.0368C173.726 79.2148 174.716 79.8304 175.965 79.8835C176.577 79.9095 177.063 79.8129 177.424 79.5937C177.799 79.362 177.995 79.0445 178.012 78.6413C178.026 78.316 177.888 78.0235 177.6 77.7636C177.324 77.5042 177.026 77.3091 176.706 77.1782C176.386 77.0342 175.905 76.8444 175.264 76.6085C175.148 76.5645 175.065 76.5349 175.013 76.5197C174.552 76.3437 174.161 76.1772 173.842 76.0202C173.537 75.8508 173.214 75.6351 172.873 75.373C172.533 75.0978 172.279 74.7678 172.113 74.3828C171.948 73.9847 171.876 73.5321 171.898 73.0247C171.94 72.036 172.39 71.2602 173.248 70.6972C174.106 70.1342 175.153 69.879 176.389 69.9316C177.312 69.9709 178.173 70.2551 178.972 70.7843C179.771 71.3005 180.356 71.9445 180.727 72.7162L179.046 73.6416C178.323 72.5552 177.415 71.9888 176.323 71.9423C175.724 71.9168 175.257 72.0208 174.921 72.2541C174.599 72.475 174.43 72.7806 174.413 73.1708C174.399 73.4961 174.523 73.7946 174.786 74.0664C175.061 74.3257 175.346 74.5203 175.64 74.6501C175.935 74.7799 176.351 74.9475 176.89 75.1529C177.031 75.198 177.134 75.235 177.198 75.2637C179.482 76.1038 180.592 77.2718 180.528 78.7679C180.489 79.6915 180.065 80.462 179.257 81.0792C178.462 81.684 177.356 81.9562 175.938 81.8959C174.845 81.8494 173.88 81.5672 173.042 81.0493C172.217 80.532 171.594 79.8474 171.174 78.9954ZM193.936 71.604L196.552 72.0611L196.732 77.8424C196.733 78.2919 196.742 79.3773 196.758 81.0985L196.835 81.112C196.962 80.764 197.161 80.2304 197.432 79.5111C197.716 78.7941 197.906 78.3117 198.002 78.0642L200.15 72.6896L202.709 73.1366L202.921 78.963C202.92 79.267 202.929 79.7841 202.947 80.5142C202.978 81.2465 202.993 81.8043 202.992 82.1875L203.069 82.2009C203.196 81.853 203.399 81.2937 203.679 80.5231C203.972 79.7547 204.145 79.2958 204.197 79.1464L206.307 73.7651L208.924 74.2222L203.983 84.7993L201.27 84.3254L201.041 78.714C201.018 77.864 201.01 76.8118 201.017 75.5574L200.94 75.5439C200.807 75.9304 200.606 76.4768 200.337 77.1833C200.068 77.8897 199.899 78.3294 199.829 78.5023L197.711 83.7037L194.998 83.2298L193.936 71.604ZM214.684 73.6695L215.347 71.0367L217.922 71.6848L217.26 74.3176L214.684 73.6695ZM211.639 86.256L214.388 75.327L216.756 75.9227L214.006 86.8517L211.639 86.256ZM221.479 79.3178L222.1 77.3017L223.761 77.813L224.743 74.6209L227.095 75.3448L226.113 78.5369L228.577 79.2952L227.957 81.3113L225.492 80.553L223.861 85.8544C223.704 86.3647 223.69 86.7624 223.821 87.0477C223.963 87.3368 224.246 87.5465 224.669 87.6767L225.901 88.0559L225.281 90.072L223.75 89.6009C221.547 88.923 220.783 87.4889 221.457 85.2986L223.14 79.8291L221.479 79.3178ZM230.073 91.6534L235.816 76.7656L238.094 77.6443L235.992 83.0928L236.047 83.1139C236.481 82.8208 236.992 82.6343 237.581 82.5545C238.182 82.4794 238.756 82.5472 239.303 82.7581C240.311 83.1471 241.023 83.7984 241.438 84.7122C241.858 85.6138 241.794 86.7752 241.245 88.1966L238.638 94.9571L236.342 94.0715L238.837 87.6025C239.456 85.9989 239.218 84.9862 238.125 84.5645C237.457 84.3067 236.788 84.3766 236.118 84.7742C235.448 85.1718 234.966 85.7533 234.671 86.5186L232.351 92.532L230.073 91.6534ZM250.925 100.373L256.143 90.3842L258.255 91.4874L257.694 92.5607C258.106 92.306 258.587 92.1456 259.135 92.0796C259.696 92.0197 260.258 92.1374 260.824 92.4328C261.355 92.7101 261.749 93.0112 262.005 93.3361L260.965 95.3269C260.599 94.9593 260.202 94.664 259.775 94.441C259.025 94.0491 258.294 94.0419 257.583 94.4195C256.889 94.7916 256.289 95.4624 255.782 96.4318L253.124 101.521L250.925 100.373ZM265.05 101.67C264.37 102.78 264.091 103.747 264.213 104.569C264.335 105.392 264.701 105.991 265.312 106.365C265.912 106.732 266.606 106.783 267.394 106.518C268.183 106.253 268.917 105.565 269.597 104.455C270.291 103.322 270.573 102.35 270.445 101.538C270.323 100.715 269.962 100.12 269.362 99.753C268.763 99.3857 268.063 99.3313 267.264 99.5897C266.482 99.8438 265.744 100.537 265.05 101.67ZM262.885 100.343C263.763 98.911 264.882 97.932 266.242 97.4063C267.602 96.8806 269.01 97.0633 270.464 97.9543C271.908 98.8385 272.704 100.006 272.854 101.457C273.004 102.907 272.64 104.349 271.762 105.781C271.49 106.225 271.174 106.642 270.813 107.032C270.463 107.428 270.04 107.795 269.543 108.132C269.054 108.458 268.539 108.7 267.999 108.858C267.466 109.005 266.865 109.027 266.196 108.922C265.539 108.825 264.876 108.572 264.21 108.164C263.555 107.762 263.026 107.293 262.622 106.756C262.236 106.214 261.979 105.674 261.85 105.137C261.739 104.596 261.711 104.03 261.768 103.438C261.843 102.843 261.972 102.296 262.155 101.797C262.356 101.294 262.6 100.81 262.885 100.343ZM276.397 111.813C276.152 112.15 276.077 112.53 276.172 112.954C276.285 113.374 276.562 113.745 277.004 114.067C277.636 114.526 278.326 114.706 279.075 114.607C279.834 114.515 280.463 114.127 280.961 113.442L281.569 112.605C281.001 112.369 280.336 112.054 279.575 111.661C278.084 110.899 277.025 110.95 276.397 111.813ZM274.249 110.517C275.497 108.8 277.534 108.679 280.358 110.154C281.384 110.691 282.129 111.039 282.592 111.199L282.948 110.71C283.27 110.267 283.365 109.805 283.233 109.323C283.1 108.84 282.771 108.407 282.245 108.024C281.244 107.297 280.082 107.079 278.758 107.372L278.3 105.445C279.18 105.232 280.057 105.21 280.932 105.379C281.826 105.546 282.635 105.893 283.362 106.422C284.72 107.41 285.448 108.446 285.544 109.531C285.649 110.605 285.272 111.732 284.414 112.911L280.301 118.566L278.358 117.152L279.186 116.015C278.713 116.267 278.136 116.363 277.455 116.302C276.793 116.239 276.146 115.978 275.514 115.518C274.513 114.791 273.909 113.972 273.7 113.064C273.492 112.155 273.675 111.306 274.249 110.517ZM284.719 121.897L291.975 113.274L293.798 114.808L293.018 115.735C293.476 115.575 293.98 115.523 294.53 115.577C295.089 115.64 295.613 115.876 296.102 116.287C296.56 116.673 296.879 117.052 297.059 117.425L295.613 119.143C295.335 118.705 295.011 118.331 294.643 118.021C293.995 117.476 293.283 117.311 292.507 117.525C291.749 117.738 291.018 118.263 290.314 119.1L286.617 123.494L284.719 121.897ZM301.915 119.567L303.768 117.584L305.709 119.397L303.855 121.381L301.915 119.567ZM293.159 129.108L300.853 120.874L302.637 122.541L294.943 130.775L293.159 129.108ZM299.213 134.884L307.418 127.158L309.065 128.907L308.027 129.885L308.04 129.899C308.478 129.756 309.012 129.744 309.644 129.864C310.295 129.985 310.905 130.349 311.477 130.956C312.244 131.771 312.605 132.657 312.557 133.613C312.51 134.57 311.927 135.575 310.809 136.628L305.533 141.596L303.833 139.79L308.867 135.05C310.127 133.863 310.356 132.843 309.553 131.989C309.062 131.468 308.443 131.228 307.695 131.27C306.957 131.322 306.279 131.638 305.663 132.218L300.914 136.69L299.213 134.884ZM315.013 143.558C314.119 144.274 313.56 145.004 313.339 145.748C313.125 146.503 313.25 147.17 313.714 147.749C314.169 148.319 314.779 148.581 315.544 148.536C316.309 148.491 317.154 148.099 318.079 147.359C318.984 146.635 319.547 145.901 319.769 145.157C319.99 144.412 319.878 143.761 319.43 143.201C318.958 142.612 318.321 142.346 317.518 142.405C316.723 142.474 315.888 142.859 315.013 143.558ZM313.424 141.603C314.797 140.505 316.167 139.967 317.536 139.989C318.905 140.012 320.016 140.557 320.87 141.624C321.301 142.163 321.526 142.726 321.544 143.311C321.581 143.899 321.497 144.399 321.294 144.812L322.316 143.994L323.853 145.916L316.273 151.98C314.616 153.306 313.13 153.961 311.817 153.944C310.501 153.946 309.306 153.276 308.233 151.934C307.053 150.46 306.707 148.86 307.195 147.136L309.105 147.709C308.885 148.852 309.121 149.856 309.813 150.72C310.26 151.279 310.844 151.571 311.563 151.596C312.283 151.62 313.001 151.371 313.717 150.848C314.14 150.543 314.484 150.285 314.748 150.074C314.268 150.141 313.762 150.07 313.229 149.863C312.706 149.647 312.27 149.321 311.92 148.884C311.034 147.776 310.725 146.555 310.993 145.224C311.272 143.883 312.082 142.677 313.424 141.603ZM330.198 158.189L331.983 157.064L332.909 158.535L335.735 156.754L337.047 158.836L334.221 160.617L335.596 162.798L333.811 163.923L332.437 161.742L327.744 164.699C327.292 164.983 327.023 165.276 326.936 165.578C326.855 165.89 326.933 166.233 327.169 166.608L327.857 167.698L326.072 168.823L325.218 167.468C323.989 165.518 324.344 163.932 326.283 162.71L331.125 159.66L330.198 158.189ZM340.018 166.852L342.39 165.531L343.682 167.852L341.311 169.172L340.018 166.852ZM328.762 173.254L338.608 167.771L339.796 169.904L329.95 175.387L328.762 173.254ZM337.575 177.592C339.244 176.796 340.753 176.573 342.104 176.923C343.46 177.286 344.439 178.096 345.039 179.353C345.325 179.952 345.425 180.539 345.339 181.114C345.27 181.695 345.098 182.196 344.822 182.616L350.18 180.058L351.241 182.279L336.841 189.154L335.814 187.004L337.136 186.373C336.589 186.374 336.033 186.207 335.468 185.871C334.921 185.54 334.507 185.082 334.226 184.494C333.974 183.965 333.83 183.406 333.794 182.818C333.758 182.229 333.842 181.619 334.045 180.988C334.255 180.368 334.656 179.758 335.249 179.157C335.86 178.563 336.635 178.041 337.575 177.592ZM338.669 179.884C337.565 180.411 336.802 181.035 336.381 181.755C335.978 182.482 335.945 183.197 336.281 183.902C336.607 184.584 337.182 184.987 338.006 185.113C338.849 185.245 339.81 185.053 340.891 184.537C341.937 184.037 342.676 183.425 343.109 182.699C343.558 181.979 343.615 181.266 343.278 180.561C342.925 179.821 342.333 179.397 341.502 179.289C340.671 179.18 339.727 179.379 338.669 179.884ZM344.324 191.811C346.015 191.166 347.536 191.115 348.886 191.66C350.253 192.211 351.206 193.193 351.744 194.604C352.273 195.991 352.204 197.327 351.538 198.612C350.871 199.898 349.729 200.849 348.111 201.466C347.795 201.587 347.478 201.687 347.159 201.767L344.375 194.467C343.572 194.773 342.969 195.275 342.566 195.972C342.18 196.677 342.147 197.449 342.467 198.288C342.69 198.872 343.025 199.33 343.472 199.661C343.935 200 344.436 200.199 344.975 200.259L345.056 202.444C344.147 202.4 343.285 202.095 342.47 201.528C341.654 200.961 341.028 200.105 340.592 198.962C340.031 197.49 340.082 196.09 340.747 194.764C341.416 193.449 342.608 192.465 344.324 191.811ZM346.013 193.884L347.907 198.848C348.71 198.541 349.31 198.069 349.707 197.429C350.116 196.786 350.175 196.08 349.883 195.314C349.59 194.547 349.064 194.044 348.304 193.805C347.56 193.573 346.797 193.599 346.013 193.884ZM341.129 208.775L347.728 208.665L348.584 211.385L341.733 210.694L341.129 208.775Z" fill="black"/>
</svg>
